<svg width="20" height="16" viewBox="0 0 20 16" fill="none" xmlns="http://www.w3.org/2000/svg">
<path d="M14.9064 7.08057C16.0689 6.91723 16.9639 5.92056 16.9664 4.71306C16.9664 3.52306 16.0989 2.5364 14.9614 2.34973" stroke="#130F26" stroke-width="1.5" stroke-linecap="round" stroke-linejoin="round"/>
<path d="M16.4404 9.87526C17.5662 10.0436 18.352 10.4378 18.352 11.2503C18.352 11.8094 17.982 12.1728 17.3837 12.4011" stroke="#130F26" stroke-width="1.5" stroke-linecap="round" stroke-linejoin="round"/>
<path fill-rule="evenodd" clip-rule="evenodd" d="M9.9055 10.2198C7.22717 10.2198 4.93967 10.6257 4.93967 12.2465C4.93967 13.8665 7.213 14.284 9.9055 14.284C12.5838 14.284 14.8705 13.8823 14.8705 12.2607C14.8705 10.639 12.598 10.2198 9.9055 10.2198Z" stroke="#130F26" stroke-width="1.5" stroke-linecap="round" stroke-linejoin="round"/>
<path fill-rule="evenodd" clip-rule="evenodd" d="M9.90559 7.90658C11.6631 7.90658 13.0881 6.48241 13.0881 4.72408C13.0881 2.96658 11.6631 1.54158 9.90559 1.54158C8.14809 1.54158 6.72309 2.96658 6.72309 4.72408C6.71643 6.47575 8.13059 7.90075 9.88226 7.90658H9.90559Z" stroke="#130F26" stroke-width="1.5" stroke-linecap="round" stroke-linejoin="round"/>
<path d="M4.90393 7.08057C3.7406 6.91723 2.84643 5.92056 2.84393 4.71306C2.84393 3.52306 3.71143 2.5364 4.84893 2.34973" stroke="#130F26" stroke-width="1.5" stroke-linecap="round" stroke-linejoin="round"/>
<path d="M3.36987 9.87526C2.24404 10.0436 1.45821 10.4378 1.45821 11.2503C1.45821 11.8094 1.82821 12.1728 2.42654 12.4011" stroke="#130F26" stroke-width="1.5" stroke-linecap="round" stroke-linejoin="round"/>
</svg>
