<svg width="610" height="610" viewBox="0 0 610 610" fill="none" xmlns="http://www.w3.org/2000/svg">
<path fill-rule="evenodd" clip-rule="evenodd" d="M341.101 538.675C367.398 538.879 393.687 537.686 419.857 535.103L419.924 535.915C414.538 536.427 409.149 536.902 403.763 537.461C387.136 539.203 370.44 539.586 353.748 540.018C341.431 540.284 329.127 539.063 317.101 536.383C302.737 533.261 288.082 532.24 273.502 530.653C245.499 527.606 217.725 523.2 190.546 515.605C188.406 515.006 185.931 514.656 184.204 513.653C179.921 511.167 174.979 510.121 170.98 506.967C168.851 505.29 165.791 504.992 163.586 502.942C157.6 497.388 150.178 494.069 143.174 490.061C132.373 483.88 121.374 477.566 113.532 467.733C99.4506 450.075 86.99 431.233 79.9881 409.515C72.7419 387.042 71.8463 364.341 78.6249 341.341C81.5424 331.437 83.7691 321.412 89.3252 312.538C92.2871 308.006 95.5473 303.676 99.0843 299.578C103.223 294.587 106.62 289.047 111.582 284.656C118.447 278.58 125.323 272.595 132.758 267.185C140.567 261.507 143.336 252.86 145.111 243.693C147.306 232.366 148.248 220.817 151.489 209.671C160.551 178.504 178.49 154.018 205.199 135.49C218.681 126.137 232.967 118.23 246.938 109.761C260.053 101.809 273.812 94.8788 286.849 86.8461C316.307 68.7021 347.971 68.4811 380.448 73.7231C394.865 76.051 408.528 81.1437 422.047 86.6523C436.813 92.6682 451.82 98.0571 465.334 106.797C489.636 122.518 508.734 142.681 520.074 169.706C525.535 182.719 530.98 195.742 533.643 209.661C536.408 223.275 536.729 237.273 534.592 251C531.842 267.786 526.835 284.068 523.96 300.814C523.429 304.019 523.181 307.264 523.219 310.512C523.264 319.092 522.117 327.681 522.989 336.24C524.045 346.593 525.682 356.888 526.712 367.242C528.185 383.067 527.993 399.003 526.138 414.788C524.473 429.659 521.569 444.364 517.456 458.75C515.076 467.357 511.655 475.642 507.268 483.419C505.18 487.058 504.26 491.998 499.486 493.758C491.421 507.191 477.54 513.204 464.933 520.824C459.406 524.164 453.28 526.255 447.481 528.992C442.758 531.22 437.837 531.09 433.059 532.07C420.026 534.753 406.713 535.469 393.46 536.505C376.057 537.869 358.604 538.295 341.101 538.675Z" fill="#0066ff"/>
<path fill-rule="evenodd" clip-rule="evenodd" d="M304.672 0.548823C304.29 0.655205 303.685 0.582845 303.746 0.190731C303.974 0.0734365 304.23 -0.0472544 304.478 0.0187032C304.727 0.0846608 304.888 0.444007 304.689 0.605617L304.672 0.548823Z" fill="#00160A"/>
<path fill-rule="evenodd" clip-rule="evenodd" d="M306.618 223.62L307.567 224.015C312.707 226.134 316.596 227.322 319.233 227.581C322.03 227.856 326.115 227.348 331.488 226.06L331.384 227.394C330.506 239.066 330.54 247.878 331.488 253.828C332.471 260.002 334.801 265.371 338.477 269.936C334.347 274.556 328.126 279.214 335.8 300.792C341.009 315.438 332.162 367.286 331.384 410.856C331.017 431.475 335.322 450.423 338.477 462.358C346.013 490.872 358.22 515.217 371.693 526.317C378.422 531.86 389.917 537.315 386.426 538.637C360.65 548.397 261.488 536.908 261.08 531.873C260.706 527.249 287.396 527.847 291.173 506.869C298.479 466.291 285.756 393.306 286.117 384.339C287.181 357.857 295.096 325.733 305 301.7C305.369 300.805 308.064 300.644 311.687 300.792L311.938 299.775C314.255 290.217 314.653 283.673 313.133 280.142C311.372 276.051 305.37 272.134 295.128 268.39C298.794 266.177 301.515 261.611 303.291 254.693L303.475 253.952C305.143 247.043 306.191 236.933 306.618 223.62Z" fill="white"/>
<path fill-rule="evenodd" clip-rule="evenodd" d="M310.251 369.149C311.342 355.819 311.279 350.69 313.133 337.444C313.671 333.604 312.868 302.028 306.199 307.075C303.7 308.965 304.695 313.181 303.502 316.078C293.598 340.111 287.181 357.858 286.117 384.34C285.57 397.941 284.656 411.607 285.754 425.175C287.701 449.221 306.896 410.171 310.251 369.149Z" fill="white"/>
<path fill-rule="evenodd" clip-rule="evenodd" d="M327.582 424.155C324.934 392.409 331.39 360.717 334.75 329.039C335.83 318.856 336.573 308.414 334.018 298.5C332.653 293.201 330.348 288.05 330.239 282.578C330.13 277.106 333.118 270.984 338.477 269.936C327.999 257.309 325.509 238.554 332.329 223.62C332.79 232.246 333.251 240.873 333.712 249.499C333.957 254.091 334.318 259.005 337.155 262.619C339.991 266.233 346.272 267.426 348.995 263.725C351.881 259.804 358.156 260.146 362.128 262.956C366.099 265.767 368.457 270.261 371.12 274.337C375.765 281.447 381.703 287.673 388.383 292.907C413.307 312.436 427.731 343.764 429.739 375.411C430.893 393.611 411.411 435.314 411.317 463.391C411.248 484.137 429.201 494.6 435.349 497.387C439.935 499.466 444.923 500.63 449.333 503.061C453.743 505.492 457.69 509.669 457.898 514.71C458.108 519.809 454.52 524.244 450.738 527.66C435.814 541.14 414.311 546.919 394.662 542.732C387.355 541.175 380.264 538.286 374.316 533.755C366.317 527.661 360.759 518.944 355.828 510.17C340.934 483.666 330.11 454.469 327.582 424.155Z" fill="white"/>
<path fill-rule="evenodd" clip-rule="evenodd" d="M283.101 137.821C286.03 123.069 292.438 109.261 298.792 95.6158C301.919 88.8996 308.614 83.9532 315.984 82.9132C313.685 84.5427 311.212 86.4285 310.642 89.1775C310.071 91.9264 312.911 95.2394 315.428 93.9685C326.18 88.54 340.46 91.234 348.465 100.201C351.168 103.229 353.158 106.808 355.124 110.354C361.728 122.263 368.546 135.162 367.051 148.678C366.606 152.702 365.765 157.623 369.016 160.059C370.587 161.237 370.107 163.663 369.434 165.502C362.566 184.28 351.946 201.693 338.373 216.428C333.905 221.279 328.369 226.16 321.754 226.058C317.547 225.994 313.68 223.89 310.01 221.842C302.651 217.735 295.208 213.567 289.091 207.786C282.973 202.006 278.223 194.348 277.669 185.975C277.251 179.658 279.181 173.047 276.933 167.124C275.812 164.173 273.719 161.635 272.809 158.613C271.9 155.591 272.771 151.584 275.787 150.606C280.722 149.006 282.095 142.884 283.101 137.821Z" fill="white"/>
<ellipse cx="345.666" cy="185.44" rx="5.69333" ry="5.69334" fill="#FFB61D"/>
<path fill-rule="evenodd" clip-rule="evenodd" d="M237.477 537.076C239.253 535.456 240.929 533.927 240.163 531.873C235.383 532.282 231.246 536.508 230.999 541.234C230.751 545.96 234.425 550.585 239.137 551.476C275.093 558.284 312.094 559.694 348.476 555.643C357.241 554.667 367.113 552.668 371.693 545.232C370.301 543.376 367.453 544.641 365.422 545.923L364.699 546.388C357.535 550.9 348.796 552.153 340.267 552.847L338.671 552.972C306.704 555.362 274.44 553.867 242.841 548.534C238.638 547.825 233.222 545.322 234.273 541.244C234.693 539.616 236.114 538.32 237.477 537.076ZM333.753 250.246L332.329 223.62C325.509 238.554 327.999 257.309 338.477 269.936C333.118 270.984 330.13 277.106 330.239 282.578C330.315 286.407 331.467 290.078 332.619 293.753C333.114 295.33 333.608 296.908 334.019 298.5C336.574 308.414 335.83 318.856 334.75 329.039L334.604 330.396C333.78 337.976 332.788 345.556 331.797 353.137C328.702 376.791 325.606 400.458 327.582 424.155C330.11 454.469 340.934 483.666 355.828 510.17C360.759 518.944 366.317 527.661 374.316 533.755C380.264 538.286 387.355 541.175 394.663 542.732C414.311 546.919 435.815 541.14 450.738 527.66C454.52 524.244 458.108 519.809 457.898 514.71C457.69 509.669 453.743 505.492 449.333 503.061C446.766 501.647 444.004 500.661 441.239 499.674C439.254 498.965 437.267 498.256 435.35 497.387C420.88 490.828 411.501 474.443 413.154 458.611C404.995 467.147 409.452 482.063 418.26 489.923C423.939 494.99 430.856 498.22 437.792 501.458C441.614 503.243 445.442 505.03 449.071 507.129C451.171 508.343 453.4 509.941 453.808 512.336C454.155 514.376 453.053 516.367 451.859 518.056C443.372 530.054 428.689 536.196 414.22 538.636C404.732 540.236 394.59 540.416 385.919 536.236C378.41 532.617 372.747 526.1 367.81 519.343L367.17 518.461C342.452 484.126 329.473 441.459 330.872 399.141C331.326 385.407 333.24 371.734 335.152 358.078C337.886 338.558 340.614 319.073 339.066 299.492L365.247 280.251C367.138 278.909 370.113 277.824 371.259 279.801C375.01 286.278 380.738 291.192 386.46 296.101C388.445 297.804 390.429 299.505 392.329 301.272C413.528 320.974 424.854 350.057 425.84 379.018C426.826 407.98 418.075 436.736 404.011 462.054C400.386 468.58 391.155 468.504 383.763 467.561L383.568 467.536C382.981 467.457 382.383 467.343 381.918 466.985C380.907 466.209 380.969 464.726 381.199 463.436L381.259 463.118C385.796 440.49 390.146 417.535 388.819 394.492C387.492 371.449 379.901 347.969 363.567 331.701C368.831 342.253 373.428 353.139 377.32 364.273C380.359 372.963 382.979 381.854 384.082 390.995C385.951 406.484 383.421 421.928 380.884 437.415C379.35 446.78 377.813 456.161 377.245 465.578L377.233 465.783C377.16 467.15 377.194 468.635 378.096 469.645C378.886 470.529 380.134 470.806 381.296 471.035L381.59 471.093C390.243 472.767 401.098 473.424 405.648 465.912C422.066 438.806 431.746 407.059 429.739 375.411C427.732 343.764 413.307 312.436 388.383 292.907L387.759 292.413C381.333 287.283 375.62 281.225 371.12 274.337C370.654 273.624 370.197 272.897 369.739 272.169C367.582 268.739 365.404 265.275 362.128 262.956C358.157 260.146 351.881 259.804 348.995 263.725L348.863 263.898C346.074 267.387 339.947 266.176 337.155 262.619C334.471 259.201 334.003 254.618 333.753 250.246ZM295.68 268.956C305.933 256.245 309.559 238.501 305.111 222.807L301.118 248.504C300.373 253.201 299.41 258.058 296.35 261.674C293.111 265.501 286.668 267.099 283.063 263.611L282.887 263.447C278.923 259.88 272.621 262.935 268.238 266.267L267.85 266.566C253.974 277.441 240.345 288.903 229.598 302.859C217.626 318.405 209.606 336.55 202.351 354.781L201.013 358.165C196.445 369.802 192.184 381.802 191.955 394.276C191.717 407.249 196.609 421.019 207.392 428.292C213.094 432.139 212.8 440.452 211.875 447.251L208.238 473.99C206.852 484.286 205.693 495.045 209.532 504.667C214.492 517.099 227.114 525.197 240.179 528.275C252.721 531.23 265.8 530.282 278.658 529.162L299.31 527.348C300.793 527.213 302.335 527.009 303.505 526.105C304.663 525.211 305.254 523.782 305.722 522.398C310.904 507.075 306.862 490.661 302.243 474.89L299.641 466.095C294.883 449.812 291.072 433.14 290.451 416.197C289.569 392.125 295.133 368.358 300.947 344.947L315.294 287.354C316.503 282.501 313.637 277.369 309.6 274.399C305.831 271.627 301.215 270.337 296.656 269.199L295.68 268.956ZM261.364 277.105C263.929 274.992 267.704 272.933 270.304 275.003C280.88 283.426 293.396 289.415 306.605 292.372C308.478 292.792 308.67 295.281 308.358 297.228L308.301 297.547C305.788 310.506 302.306 323.351 298.828 336.183C291.758 362.263 284.705 388.285 285.83 415.09C286.662 434.919 291.972 454.218 297.609 473.294L299.861 480.883C303.192 492.17 306.272 504.3 302.318 515.336C301.371 517.978 299.919 520.607 297.496 522.035C295.6 523.152 293.334 523.408 291.144 523.639L278.535 524.97C266.189 526.264 253.602 527.388 241.545 524.526C228.997 521.548 216.914 513.372 212.872 501.165C209.94 492.31 211.535 482.769 213.085 473.497C213.185 472.894 213.286 472.293 213.385 471.693L213.56 470.622C215.347 459.594 216.355 448.44 216.573 437.271C230.807 453.303 243.027 471.109 252.86 490.141C253.568 491.512 255.648 490.879 256.963 490.067L257.974 489.441C263.373 486.093 268.794 482.548 272.57 477.473C276.582 472.08 278.358 464.479 275.15 458.576L255.596 422.596C248.557 409.627 241.409 395.624 243.045 380.995C244.09 371.649 248.643 363.135 253.323 354.933L265.344 333.969L264.167 335.239C252.408 347.994 241.009 362.413 239.22 379.57C237.882 392.396 242.155 405.117 247.521 416.884L248.044 418.02C253.827 430.482 260.743 442.378 267.775 454.191L270.415 458.618C273.289 463.431 272.018 469.834 268.802 474.428C265.794 478.725 261.382 481.786 256.976 484.675L256.065 485.27L247.512 470.677C240.021 457.915 232.273 445.079 221.469 434.97C219.543 433.168 217.516 431.448 215.49 429.729C210.413 425.42 205.338 421.113 201.841 415.508C192.707 400.864 196.809 381.899 202.746 365.616L203.111 364.623C215.449 331.409 233.969 299.667 261.364 277.105ZM399.075 478.629L375.554 473.539C374.214 473.261 372.669 473.083 371.693 473.983C371.911 475.406 373.456 476.175 374.898 476.68L375.229 476.792C382.863 479.307 390.74 481.855 398.797 481.392C399.753 481.336 400.984 480.963 400.973 480.044C400.964 479.211 399.923 478.812 399.075 478.629ZM333.467 304.986L333.085 301.7C328.395 302.492 323.611 302.747 318.861 302.457L318.719 302.449C317.323 302.363 315.853 302.273 314.626 302.917C313.357 303.584 312.61 305.39 313.568 306.442C314.199 307.135 315.254 307.223 316.201 307.263L316.643 307.281C322.386 307.518 328.406 307.623 333.467 304.986ZM272.324 270.593C271.52 268.196 274.428 265.93 276.951 266.185C279.095 266.402 280.908 267.699 282.682 268.969C282.746 269.015 282.81 269.061 282.874 269.106L283.624 269.636C289.538 273.73 296.604 275.695 303.637 277.376L306.046 277.944C309.727 278.806 310.404 283.583 310.226 287.42L310.202 287.842C310.18 288.193 310.149 288.568 309.931 288.844C309.491 289.401 308.618 289.237 307.941 289.018L307.239 288.791C295.54 284.985 283.787 280.574 274.223 272.871C273.441 272.242 272.642 271.543 272.324 270.593ZM315.537 83.232L315.984 82.9132C308.614 83.9532 301.919 88.8996 298.792 95.6158C292.438 109.261 286.03 123.069 283.101 137.821C282.095 142.884 280.722 149.006 275.787 150.606L275.601 150.671C272.735 151.751 271.919 155.653 272.809 158.613C273.307 160.266 274.159 161.774 275.012 163.285C275.718 164.535 276.425 165.787 276.933 167.124C278.371 170.912 278.1 174.983 277.827 179.078C277.673 181.385 277.519 183.699 277.669 185.975C278.223 194.348 282.973 202.006 289.091 207.786C294.616 213.007 301.223 216.913 307.873 220.647L310.01 221.842C313.68 223.89 317.547 225.994 321.754 226.058C328.369 226.16 333.905 221.279 338.373 216.428L339.028 215.713C352.288 201.131 362.677 183.977 369.434 165.502C370.107 163.663 370.587 161.237 369.016 160.059C366.275 158.005 366.443 154.184 366.829 150.625L367.051 148.678C368.506 135.517 362.081 122.942 355.646 111.296L354.796 109.763C352.935 106.412 351.018 103.061 348.465 100.201C340.46 91.234 326.18 88.54 315.428 93.9685C312.911 95.2394 310.071 91.9264 310.642 89.1775C311.175 86.6059 313.374 84.7896 315.537 83.232ZM282.629 165.479C283.535 160.052 284.445 154.601 284.246 149.175C287.497 158.312 298.456 163.943 307.833 161.295C308.828 161.014 309.801 160.654 310.773 160.294C312.344 159.713 313.912 159.132 315.565 158.889C318.241 158.494 321.376 159.267 322.656 161.636L322.787 161.87C326.516 168.361 336.189 168.857 343.115 165.808C346.693 164.233 349.911 161.999 353.131 159.765C356.219 157.622 359.307 155.479 362.715 153.915C363.279 155.911 362.753 157.975 362.272 159.863C361.852 161.513 361.466 163.029 361.872 164.247C362.128 163.894 362.371 163.551 362.602 163.223C364.087 161.118 365.122 159.651 366.487 160.683C368.065 161.876 367.952 165.159 366.487 166.846C365.967 167.444 365.355 167.975 364.745 168.503C363.635 169.465 362.533 170.419 362.014 171.762C355.336 189.026 344.909 204.846 331.653 217.825C330.029 219.415 328.298 221.004 326.153 221.772C321.586 223.407 316.663 220.938 312.447 218.545L310.424 217.388C298.246 210.369 285.58 201.886 282.035 188.495C280.044 180.973 281.332 173.252 282.629 165.479ZM320.929 166.419L321.396 166.1C320.919 163.638 316.971 163.824 315.059 165.516C311.778 168.42 311.352 173.908 314.285 177.141C317.219 180.374 323.074 180.602 326.145 177.491C326.211 176.126 324.422 175.399 323.016 175.534C322.574 175.576 322.13 175.663 321.686 175.749C320.72 175.937 319.758 176.124 318.831 175.853C316.743 175.242 316.044 172.512 316.892 170.569C317.666 168.795 319.293 167.546 320.929 166.419ZM279.07 152.726L279.789 152.723C280.835 152.736 282.27 152.877 282.035 153.915C281.28 157.259 280.935 161.157 280.751 163.829L280.597 166.277C280.151 166.449 278.873 164.695 278.137 163.684C277.986 163.478 277.858 163.302 277.765 163.181L277.669 163.061C277.474 162.638 277.211 162.137 276.924 161.588C275.105 158.122 272.274 152.726 279.07 152.726ZM290.803 123.5C291.38 121.581 292.035 119.542 293.601 118.281C295.167 117.021 297.944 117.071 298.823 118.873C300.883 123.098 305.599 125.336 310.144 126.607C323.57 130.359 338.557 128.183 350.343 120.771C352.637 119.329 355.841 120.294 357.698 122.262C359.401 124.066 360.222 126.49 360.838 128.902L361.001 129.559C362.379 135.232 363.237 141.029 363.559 146.856C363.611 147.782 363.63 148.778 363.116 149.552C362.806 150.019 362.334 150.351 361.872 150.671L361.154 151.169C359.112 152.575 357 153.927 354.613 154.578C351.946 155.306 348.824 155.002 346.816 153.111L346.58 152.894C341.492 148.317 333.262 147.602 327.471 151.277C326.726 151.749 326.006 152.29 325.286 152.831C323.441 154.216 321.598 155.6 319.346 155.832C315.984 156.179 313.265 153.917 310.558 151.666C309.602 150.87 308.647 150.076 307.666 149.399C302.243 145.654 294.585 145.429 288.949 148.848C284.906 145.942 285.905 139.798 287.334 135.045L290.803 123.5ZM350.698 143.765L333.17 142.329C332.17 142.253 331.112 142.226 330.273 142.725C329.375 143.26 329.033 144.657 329.91 145.221C330.25 145.44 330.682 145.483 331.093 145.519L348.87 147.096C351.319 147.295 354.258 147.193 355.427 145.208C354.218 144.102 352.386 143.904 350.698 143.765ZM310.629 144.335C310.895 143.308 310.3 142.257 309.596 141.451C305.499 136.753 296.745 137.268 293.256 142.413C292.577 143.414 292.576 145.325 293.804 145.246C297.163 140.989 304.728 140.941 308.145 145.155C308.818 145.986 310.362 145.361 310.629 144.335ZM358.68 141.24C358.966 140.949 358.874 139.764 358.075 139.309C357.484 138.973 355.811 138.81 355.532 139.387C354.902 140.652 357.805 142.133 358.68 141.24ZM358.592 136.957C358.891 136.221 357.472 134.156 356.654 134.153C355.935 134.15 355.04 136.252 355.519 136.945C356.009 137.654 358.323 137.617 358.592 136.957ZM353.621 135.766C354.602 135.621 355.384 133.465 354.613 132.897C353.847 132.331 351.62 132.924 351.376 133.63C351.124 134.359 352.569 135.922 353.621 135.766ZM294.01 133.227C295.028 134.643 297.595 134.385 298.311 132.796C299.027 131.206 297.521 129.11 295.788 129.283C294.054 129.457 292.993 131.811 294.01 133.227ZM354.642 129.594C355.766 130.073 357.446 129.955 357.544 128.788C357.453 127.226 355.735 126.981 354.613 127.172C353.716 127.325 353.733 129.207 354.642 129.594ZM351.892 129.556C352.704 129.104 352.492 126.644 351.585 126.334C350.603 125.998 347.962 126.663 348.114 128.263C348.267 129.863 350.969 130.069 351.892 129.556ZM297.335 128.682C298.315 129.754 300.415 129.292 300.854 127.907C301.292 126.522 299.842 124.934 298.424 125.246C297.005 125.559 296.356 127.609 297.335 128.682ZM294.421 125.489C295.204 124.826 295.316 123.634 294.859 123.01C293.938 121.749 293.167 121.754 292.538 122.375C291.753 123.148 291.717 124.451 292.031 125.798C292.149 126.302 293.624 126.165 294.421 125.489ZM338.695 187.657C336.252 190.86 332.603 193.155 328.619 193.994C328.514 194.017 328.408 194.038 328.302 194.06C327.479 194.226 326.634 194.397 325.999 194.925C325.282 195.521 325.041 196.774 325.797 197.322C326.219 197.628 326.791 197.615 327.313 197.568C334.106 196.957 340.411 192.552 343.227 186.449C343.031 185.484 341.683 185.152 340.777 185.572C339.981 185.94 339.441 186.662 338.915 187.365C338.842 187.463 338.769 187.561 338.695 187.657Z" fill="#00160A"/>
<path fill-rule="evenodd" clip-rule="evenodd" d="M357.913 371.136C359.684 370.015 361.778 372.22 362.278 374.274C362.778 376.329 362.845 378.802 364.561 380.008C366.316 381.241 368.675 380.37 370.773 379.964C372.871 379.557 375.767 380.349 375.76 382.514C375.758 383.049 375.56 383.561 375.355 384.054C373.539 388.422 370.964 392.465 367.783 395.938C368.455 398.741 369.483 401.455 370.836 403.993C371.74 405.69 369.713 407.728 367.812 407.639C365.911 407.55 364.329 406.216 362.788 405.084C361.248 403.951 359.322 402.924 357.517 403.536C355.959 404.063 355.033 405.626 354.013 406.931C352.993 408.236 351.399 409.464 349.843 408.933C347.96 408.29 347.697 405.71 347.984 403.717C348.359 401.106 349.087 398.547 350.141 396.134C350.886 394.429 349.664 392.451 348.144 391.402C346.623 390.352 344.783 389.822 343.344 388.66C341.906 387.498 340.985 385.267 342.086 383.773C342.621 383.047 343.499 382.68 344.348 382.397C347.178 381.456 350.196 381.096 353.165 381.345C354.3 378.603 355.435 375.861 356.57 373.119C356.881 372.367 357.231 371.568 357.913 371.136V371.136Z" fill="#FFB61D"/>
<path fill-rule="evenodd" clip-rule="evenodd" d="M274.223 272.871C273.441 272.242 272.642 271.543 272.324 270.593C271.52 268.196 274.427 265.93 276.951 266.185C279.095 266.402 280.908 267.7 282.682 268.969C282.997 269.194 283.31 269.419 283.624 269.636C290.214 274.198 298.234 276.116 306.046 277.944C309.863 278.838 310.45 283.942 310.202 287.842C310.18 288.193 310.149 288.568 309.931 288.844C309.491 289.401 308.618 289.237 307.941 289.018C296.011 285.16 283.978 280.728 274.223 272.871ZM272.57 477.473C276.582 472.08 278.358 464.479 275.15 458.576L255.856 423.076C248.735 409.973 241.389 395.804 243.045 380.995C244.158 371.04 249.252 362.028 254.239 353.332L265.343 333.97C253.178 347.036 241.068 361.841 239.219 379.57C237.839 392.81 242.436 405.938 248.043 418.02C254.55 432.039 262.49 445.343 270.415 458.618C273.288 463.431 272.018 469.834 268.802 474.428C265.587 479.021 260.767 482.202 256.065 485.27L248.409 472.208C240.636 458.946 232.705 445.483 221.469 434.97C219.542 433.168 217.516 431.448 215.49 429.729C210.413 425.42 205.338 421.113 201.841 415.508C192.52 400.565 196.982 381.123 203.111 364.623C215.449 331.409 233.969 299.667 261.364 277.105C263.929 274.992 267.704 272.933 270.303 275.003C280.879 283.426 293.396 289.415 306.605 292.372C308.582 292.815 308.685 295.564 308.301 297.547C305.787 310.506 302.306 323.351 298.828 336.183C291.758 362.263 284.705 388.285 285.83 415.09C286.74 436.759 292.996 457.796 299.183 478.6C299.311 479.03 299.438 479.46 299.566 479.889C303.005 491.455 306.388 503.976 302.318 515.336C301.371 517.978 299.919 520.607 297.496 522.035C295.6 523.152 293.334 523.408 291.144 523.639L280.045 524.811C267.217 526.166 254.094 527.504 241.545 524.526C228.996 521.548 216.914 513.372 212.872 501.165C209.939 492.31 211.534 482.769 213.084 473.497C213.245 472.535 213.405 471.577 213.56 470.622C215.347 459.594 216.354 448.44 216.573 437.271C230.807 453.303 243.027 471.109 252.859 490.141C253.568 491.512 255.647 490.879 256.962 490.067C262.689 486.53 268.558 482.866 272.57 477.473Z" fill="white"/>
<path fill-rule="evenodd" clip-rule="evenodd" d="M365.521 275.26C365.614 274.346 365.085 273.497 364.579 272.73C363.092 270.481 361.534 268.16 359.243 266.743C356.952 265.326 353.705 265.08 351.728 266.911C347.924 270.435 343.499 273.283 338.72 275.283C335.577 276.599 333.993 280.318 334.124 283.73C334.254 287.142 335.741 290.335 337.2 293.42C337.454 293.957 337.791 294.56 338.376 294.661C338.864 294.745 339.326 294.437 339.726 294.143C348.325 287.849 356.923 281.555 365.521 275.26Z" fill="white"/>
<path fill-rule="evenodd" clip-rule="evenodd" d="M162.037 152.283C162.393 151.838 162.55 151.266 162.471 150.702C162.394 150.132 162.09 149.618 161.627 149.277C161.627 149.277 155.788 145.226 155.443 145.376C155.098 145.527 160.385 150.967 160.385 150.967C150.462 163.273 132.595 165.582 119.862 156.206C107.13 146.829 104.054 129.095 112.885 115.985L151.556 145.208C152.025 145.553 152.686 145.453 153.031 144.985C153.377 144.516 114.145 114.294 114.145 114.294C113.687 113.948 113.108 113.803 112.541 113.893C111.974 113.983 111.468 114.299 111.14 114.77C101.44 128.806 104.693 148.005 118.476 158.07C132.168 168.247 151.483 165.681 162.037 152.283ZM121.671 155.64C132.531 163.688 147.656 162.639 157.293 153.168C157.711 152.76 157.718 152.091 157.308 151.674C156.899 151.257 156.228 151.25 155.809 151.658C146.896 160.366 132.962 161.338 122.919 153.953C112.876 146.567 109.692 133.008 115.404 121.946C115.594 121.609 115.584 121.196 115.378 120.869C115.172 120.541 114.804 120.352 114.417 120.375C114.03 120.398 113.687 120.63 113.522 120.98C107.29 132.955 110.75 147.673 121.671 155.64ZM123.462 148.365C123.395 147.449 123.624 146.537 124.106 145.802C124.687 144.977 125.406 144.293 126.22 143.789C127.759 142.824 128.674 143.123 129.171 143.543C130.789 144.905 129.53 148.582 128.779 149.749C128.182 150.695 127.229 151.263 126.209 151.28C125.622 151.284 125.048 151.072 124.575 150.674C123.929 150.125 123.524 149.282 123.462 148.365ZM128 145.357C127.083 145.659 126.268 146.273 125.663 147.117C125.465 147.416 125.369 147.788 125.394 148.163C125.41 148.448 125.532 148.713 125.728 148.89C126.253 149.226 126.916 149.023 127.225 148.433C127.75 147.521 128.02 146.449 128 145.357ZM134.445 154.515C135.34 154.61 136.234 154.332 136.892 153.754C137.555 153.184 137.973 152.406 138.067 151.565C138.224 150.24 137.648 146.649 135.414 146.412C134.713 146.336 133.691 146.585 132.675 148.162C132.133 148.993 131.771 149.918 131.611 150.881C131.503 151.72 131.727 152.568 132.24 153.261C132.747 153.96 133.552 154.418 134.445 154.515ZM135.167 148.477C135.719 149.337 135.98 150.334 135.915 151.337C135.882 151.681 135.714 152.002 135.445 152.237C135.245 152.423 134.967 152.516 134.687 152.49C134.41 152.451 134.163 152.302 134.009 152.082C133.802 151.796 133.715 151.448 133.763 151.106C133.938 150.116 134.428 149.199 135.167 148.477ZM142.73 144.934C144.707 144.059 146.99 146.992 147.53 148.257V148.254C148.302 149.892 147.634 151.859 146.034 152.658C145.668 152.822 145.272 152.907 144.872 152.907C144.425 152.904 143.983 152.802 143.578 152.608C142.804 152.237 142.19 151.589 141.853 150.786C141.315 149.524 140.752 145.808 142.73 144.934ZM144.44 150.699C144.679 150.818 144.956 150.83 145.204 150.729C145.755 150.394 145.945 149.672 145.633 149.1C145.179 148.171 144.459 147.404 143.569 146.902C143.323 147.911 143.383 148.972 143.742 149.944C143.876 150.274 144.125 150.543 144.44 150.699ZM118.96 126.906C118.121 126.799 117.274 127.023 116.58 127.535C115.881 128.043 115.423 128.848 115.325 129.741C115.204 131.607 116.526 133.225 118.283 133.362C118.438 133.379 118.593 133.388 118.749 133.387C120.301 133.387 123.225 132.717 123.44 130.708C123.667 128.473 120.286 127.064 118.96 126.906ZM118.506 131.21C117.872 131.2 117.36 130.656 117.353 129.982C117.391 129.705 117.54 129.458 117.761 129.304C117.995 129.133 118.274 129.043 118.558 129.047C118.617 129.047 118.677 129.047 118.738 129.058C119.73 129.232 120.649 129.723 121.372 130.465C120.509 131.017 119.508 131.276 118.503 131.21H118.506ZM117.195 141.342C116.845 140.553 116.862 139.653 117.243 138.878C117.616 138.102 118.265 137.486 119.067 137.148C120.328 136.606 124.042 136.054 124.917 138.026C125.792 139.999 122.861 142.301 121.597 142.842C121.136 143.042 120.637 143.146 120.133 143.147C119.771 143.147 119.41 143.091 119.066 142.982C118.229 142.73 117.545 142.131 117.195 141.342ZM121.877 138.717C121.206 138.706 120.54 138.818 119.911 139.047H119.914C119.582 139.18 119.313 139.429 119.156 139.746C119.027 139.983 119.016 140.265 119.125 140.512C119.234 140.759 119.453 140.943 119.718 141.011C120.06 141.112 120.428 141.088 120.753 140.943C121.682 140.487 122.448 139.765 122.951 138.872C122.607 138.751 122.242 138.698 121.877 138.717Z" fill="#FFB61D"/>
<path fill-rule="evenodd" clip-rule="evenodd" d="M500.829 459.723C500.473 459.278 500.316 458.706 500.396 458.142C500.472 457.572 500.777 457.058 501.24 456.717C501.24 456.717 507.078 452.666 507.424 452.816C507.769 452.967 502.481 458.407 502.481 458.407C512.405 470.713 530.272 473.022 543.004 463.646C555.737 454.269 558.813 436.535 549.981 423.425L511.31 452.648C510.841 452.993 510.181 452.893 509.835 452.425C509.489 451.956 548.722 421.734 548.722 421.734C549.179 421.388 549.759 421.243 550.326 421.333C550.893 421.423 551.399 421.739 551.727 422.21C561.426 436.246 558.174 455.445 544.391 465.51C530.698 475.687 511.383 473.121 500.829 459.723ZM541.196 463.08C530.336 471.128 515.211 470.079 505.574 460.608C505.156 460.2 505.149 459.531 505.558 459.114C505.968 458.697 506.639 458.69 507.057 459.098C515.971 467.806 529.905 468.778 539.948 461.393C549.991 454.007 553.174 440.448 547.462 429.386C547.272 429.049 547.283 428.636 547.488 428.309C547.694 427.981 548.063 427.792 548.45 427.815C548.836 427.838 549.18 428.07 549.345 428.42C555.577 440.395 552.117 455.113 541.196 463.08ZM539.404 455.805C539.471 454.889 539.242 453.977 538.76 453.242C538.179 452.417 537.461 451.733 536.647 451.229C535.108 450.264 534.192 450.563 533.696 450.983C532.078 452.345 533.337 456.022 534.088 457.189C534.685 458.135 535.637 458.703 536.657 458.72C537.245 458.724 537.818 458.512 538.292 458.114C538.937 457.565 539.343 456.722 539.404 455.805ZM534.867 452.797C535.783 453.099 536.598 453.713 537.203 454.557C537.401 454.856 537.497 455.228 537.472 455.603C537.456 455.888 537.335 456.153 537.138 456.33C536.613 456.666 535.951 456.463 535.641 455.873C535.117 454.961 534.847 453.889 534.867 452.797ZM528.421 461.955C527.527 462.05 526.633 461.772 525.974 461.194C525.311 460.624 524.893 459.846 524.8 459.005C524.643 457.68 525.219 454.089 527.452 453.852C528.154 453.776 529.176 454.025 530.191 455.602C530.734 456.433 531.095 457.358 531.256 458.321C531.364 459.16 531.14 460.008 530.627 460.701C530.119 461.4 529.315 461.858 528.421 461.955ZM527.699 455.917C527.147 456.777 526.886 457.774 526.951 458.777C526.985 459.121 527.152 459.442 527.422 459.677C527.622 459.863 527.9 459.956 528.18 459.93C528.457 459.891 528.703 459.742 528.858 459.522C529.064 459.236 529.152 458.888 529.103 458.546C528.928 457.556 528.439 456.639 527.699 455.917ZM520.137 452.374C518.159 451.499 515.876 454.432 515.337 455.697V455.694C514.564 457.332 515.232 459.299 516.832 460.098C517.198 460.262 517.594 460.347 517.994 460.347C518.442 460.344 518.883 460.242 519.288 460.048C520.062 459.677 520.676 459.029 521.013 458.226C521.552 456.964 522.114 453.248 520.137 452.374ZM518.427 458.139C518.188 458.258 517.91 458.27 517.663 458.169C517.111 457.834 516.921 457.112 517.234 456.54C517.688 455.611 518.407 454.844 519.298 454.342C519.544 455.351 519.483 456.412 519.124 457.384C518.99 457.714 518.742 457.983 518.427 458.139ZM543.906 434.346C544.746 434.239 545.593 434.463 546.287 434.975C546.986 435.483 547.443 436.288 547.541 437.181C547.663 439.047 546.34 440.665 544.584 440.802C544.429 440.819 544.273 440.828 544.118 440.827C542.565 440.827 539.642 440.157 539.426 438.148C539.2 435.913 542.581 434.504 543.906 434.346ZM544.36 438.65C544.995 438.64 545.506 438.096 545.514 437.422C545.475 437.145 545.327 436.898 545.106 436.744C544.872 436.573 544.593 436.483 544.308 436.487C544.249 436.487 544.19 436.487 544.129 436.498C543.137 436.672 542.218 437.163 541.495 437.905C542.358 438.457 543.358 438.716 544.363 438.65H544.36ZM545.672 448.782C546.022 447.993 546.004 447.093 545.623 446.318C545.251 445.542 544.602 444.926 543.8 444.588C542.539 444.046 538.825 443.494 537.949 445.466C537.074 447.439 540.005 449.741 541.269 450.282C541.731 450.482 542.229 450.586 542.734 450.587C543.096 450.587 543.456 450.531 543.801 450.422C544.638 450.17 545.321 449.571 545.672 448.782ZM540.989 446.157C541.66 446.146 542.327 446.258 542.956 446.487H542.953C543.284 446.62 543.554 446.869 543.71 447.186C543.839 447.423 543.851 447.705 543.741 447.952C543.632 448.199 543.414 448.383 543.149 448.451C542.807 448.553 542.439 448.528 542.113 448.383C541.184 447.927 540.418 447.205 539.916 446.312C540.26 446.191 540.625 446.138 540.989 446.157Z" fill="#FFB61D"/>
<circle cx="296.867" cy="189.507" r="5.69333" fill="#FFB61D"/>
<path fill-rule="evenodd" clip-rule="evenodd" d="M282.846 474.335C283.569 476.139 281.196 484.513 275.003 490.515C268.81 496.517 260.77 497.941 260.111 496.297C259.452 494.652 268.463 491.419 274.15 485.56C279.837 479.701 282.124 472.532 282.846 474.335Z" fill="#00160A"/>
</svg>
