<svg width="20" height="18" viewBox="0 0 20 18" fill="none" xmlns="http://www.w3.org/2000/svg">
<path d="M13 6L19 6L19 15C19 15.9428 19 16.4142 18.7071 16.7071C18.4142 17 17.9428 17 17 17L13 17L13 6Z" stroke="black" stroke-width="1.2" stroke-linecap="round"/>
<path d="M1 6L7 6L7 17L3 17C2.05719 17 1.58579 17 1.29289 16.7071C1 16.4142 1 15.9428 1 15L1 6Z" stroke="black" stroke-width="1.2" stroke-linecap="round"/>
<rect x="7" y="6" width="6" height="11" stroke="black" stroke-width="1.2" stroke-linecap="round"/>
<path d="M1 3C1 2.05719 1 1.58579 1.29289 1.29289C1.58579 1 2.05719 1 3 1L17 1C17.9428 1 18.4142 1 18.7071 1.29289C19 1.58579 19 2.05719 19 3L19 6L1 6L1 3Z" stroke="black" stroke-width="1.2" stroke-linecap="round"/>
</svg>
