<svg width="16" height="16" viewBox="0 0 16 16" fill="none" xmlns="http://www.w3.org/2000/svg">
<path d="M12.8002 9.6C13.6839 9.6 14.4002 8.88366 14.4002 8C14.4002 7.11635 13.6839 6.4 12.8002 6.4C11.9165 6.4 11.2002 7.11635 11.2002 8C11.2002 8.88366 11.9165 9.6 12.8002 9.6Z" fill="#697077"/>
<path d="M8.00039 9.6C8.88405 9.6 9.60039 8.88366 9.60039 8C9.60039 7.11635 8.88405 6.4 8.00039 6.4C7.11674 6.4 6.40039 7.11635 6.40039 8C6.40039 8.88366 7.11674 9.6 8.00039 9.6Z" fill="#697077"/>
<path d="M3.19961 9.6C4.08326 9.6 4.79961 8.88366 4.79961 8C4.79961 7.11635 4.08326 6.4 3.19961 6.4C2.31595 6.4 1.59961 7.11635 1.59961 8C1.59961 8.88366 2.31595 9.6 3.19961 9.6Z" fill="#697077"/>
</svg>
