<svg width="16" height="16" viewBox="0 0 16 16" fill="none" xmlns="http://www.w3.org/2000/svg">
<path d="M14.2932 7.36665L8.16657 13.4933C7.41601 14.2439 6.39803 14.6655 5.33657 14.6655C4.27512 14.6655 3.25714 14.2439 2.50657 13.4933C1.75601 12.7428 1.33435 11.7248 1.33435 10.6633C1.33435 9.60186 1.75601 8.58388 2.50657 7.83332L8.63324 1.70665C9.13362 1.20628 9.81227 0.925171 10.5199 0.925171C11.2275 0.925171 11.9062 1.20628 12.4066 1.70665C12.9069 2.20703 13.1881 2.88568 13.1881 3.59332C13.1881 4.30096 12.9069 4.97961 12.4066 5.47999L6.27324 11.6067C6.02305 11.8568 5.68373 11.9974 5.32991 11.9974C4.97609 11.9974 4.63676 11.8568 4.38657 11.6067C4.13639 11.3565 3.99583 11.0171 3.99583 10.6633C3.99583 10.3095 4.13639 9.97017 4.38657 9.71999L10.0466 4.06665" stroke="#B5B5B5" stroke-width="1.5" stroke-linecap="round" stroke-linejoin="round"/>
</svg>
