<svg width="20" height="18" viewBox="0 0 20 18" fill="none" xmlns="http://www.w3.org/2000/svg">
<path fill-rule="evenodd" clip-rule="evenodd" d="M8.658 2.60886L6.50001 6L10.5 9.5L9.50001 12L13 9L10 5.5L12 3L11.5505 2.43806C13.2875 1.09704 15.8257 1.09777 17.5581 2.66029C19.9154 4.78648 19.8727 8.49852 17.4672 10.57L10.4855 16.582C10.3351 16.7115 10.2599 16.7763 10.178 16.8074C10.0633 16.8511 9.93664 16.8511 9.82199 16.8074C9.74012 16.7763 9.66492 16.7115 9.51452 16.582L9.51451 16.582L2.5328 10.57C0.127258 8.49852 0.084591 4.78648 2.44188 2.66029C4.24492 1.03402 6.92091 1.09958 8.658 2.60886Z" fill="#4E4E4E"/>
<path d="M6.50001 6L6.07818 5.73156L5.84775 6.09366L6.17075 6.37628L6.50001 6ZM8.658 2.60886L9.07983 2.8773L9.31107 2.51392L8.98594 2.23142L8.658 2.60886ZM10.5 9.5L10.9642 9.68569L11.0958 9.3569L10.8293 9.12371L10.5 9.5ZM9.50001 12L9.03577 11.8143L9.8254 12.3796L9.50001 12ZM13 9L13.3254 9.37962L13.705 9.05423L13.3796 8.6746L13 9ZM10 5.5L9.60957 5.18765L9.3509 5.51099L9.62038 5.82539L10 5.5ZM12 3L12.3904 3.31234L12.6403 2.99999L12.3904 2.68765L12 3ZM11.5505 2.43806L11.2449 2.04228L10.8422 2.35316L11.16 2.75041L11.5505 2.43806ZM17.5581 2.66029L17.893 2.28901V2.28901L17.5581 2.66029ZM17.4672 10.57L17.7934 10.9488L17.4672 10.57ZM10.4855 16.582L10.1592 16.2031L10.1592 16.2031L10.4855 16.582ZM10.178 16.8074L10 16.3402L9.99999 16.3402L10.178 16.8074ZM9.82199 16.8074L10 16.3402L9.99999 16.3402L9.82199 16.8074ZM9.51452 16.582L9.16096 16.9355L9.17414 16.9487L9.18826 16.9609L9.51452 16.582ZM9.51451 16.582L9.86806 16.2284L9.85489 16.2153L9.84077 16.2031L9.51451 16.582ZM2.5328 10.57L2.85906 10.1911L2.5328 10.57ZM2.44188 2.66029L2.107 2.28901L2.44188 2.66029ZM6.92184 6.26843L9.07983 2.8773L8.23617 2.34042L6.07818 5.73156L6.92184 6.26843ZM10.8293 9.12371L6.82926 5.62371L6.17075 6.37628L10.1708 9.87628L10.8293 9.12371ZM9.96425 12.1857L10.9642 9.68569L10.0358 9.3143L9.03577 11.8143L9.96425 12.1857ZM12.6746 8.62037L9.17461 11.6204L9.8254 12.3796L13.3254 9.37962L12.6746 8.62037ZM9.62038 5.82539L12.6204 9.32539L13.3796 8.6746L10.3796 5.1746L9.62038 5.82539ZM11.6096 2.68765L9.60957 5.18765L10.3904 5.81234L12.3904 3.31234L11.6096 2.68765ZM11.16 2.75041L11.6096 3.31234L12.3904 2.68765L11.9409 2.12571L11.16 2.75041ZM17.893 2.28901C15.9733 0.557573 13.1649 0.560045 11.2449 2.04228L11.856 2.83384C13.4101 1.63404 15.6781 1.63796 17.2232 3.03158L17.893 2.28901ZM17.7934 10.9488C20.4271 8.68094 20.4738 4.61685 17.893 2.28901L17.2232 3.03158C19.3569 4.95611 19.3183 8.31609 17.1409 10.1911L17.7934 10.9488ZM10.8117 16.9609L17.7934 10.9488L17.1409 10.1911L10.1592 16.2031L10.8117 16.9609ZM10.356 17.2747C10.54 17.2046 10.6926 17.0635 10.8117 16.9609L10.1592 16.2031C10.0793 16.2719 10.0365 16.3085 10.0039 16.3332C9.97511 16.355 9.97878 16.3483 10 16.3402L10.356 17.2747ZM9.64399 17.2747C9.87329 17.362 10.1267 17.362 10.356 17.2747L9.99999 16.3402H10L9.64399 17.2747ZM9.18826 16.9609C9.30743 17.0635 9.46002 17.2046 9.644 17.2747L9.99999 16.3402C10.0212 16.3483 10.0249 16.355 9.99608 16.3332C9.96349 16.3085 9.92063 16.2719 9.84078 16.2031L9.18826 16.9609ZM9.16096 16.9355L9.16096 16.9355L9.86807 16.2284L9.86806 16.2284L9.16096 16.9355ZM2.20654 10.9488L9.18825 16.9609L9.84077 16.2031L2.85906 10.1911L2.20654 10.9488ZM2.107 2.28901C-0.473864 4.61684 -0.427151 8.68094 2.20654 10.9488L2.85906 10.1911C0.681666 8.31609 0.643046 4.95611 2.77677 3.03158L2.107 2.28901ZM8.98594 2.23142C7.06544 0.562798 4.10482 0.48705 2.107 2.28901L2.77677 3.03158C4.38502 1.581 6.77638 1.63637 8.33007 2.9863L8.98594 2.23142Z" fill="#4E4E4E"/>
</svg>
