<svg width="20" height="20" viewBox="0 0 20 20" fill="none" xmlns="http://www.w3.org/2000/svg">
<path d="M9.37502 9.37503C11.5324 9.37503 13.2813 7.62614 13.2813 5.46877C13.2813 3.3114 11.5324 1.5625 9.37502 1.5625C7.21765 1.5625 5.46875 3.3114 5.46875 5.46877C5.46875 7.62614 7.21765 9.37503 9.37502 9.37503Z" stroke="#9EA3A9" stroke-width="1.5" stroke-linecap="round" stroke-linejoin="round"/>
<path d="M2.66406 17.1876C2.66406 14.1641 5.67189 11.7188 9.37503 11.7188C10.125 11.7188 10.8516 11.8204 11.5313 12.0079" stroke="#9EA3A9" stroke-width="1.5" stroke-linecap="round" stroke-linejoin="round"/>
<path d="M19.1143 15.1302C19.1143 15.4489 19.0745 15.7577 18.9948 16.0565C18.9051 16.455 18.7457 16.8435 18.5366 17.1821C17.8493 18.3376 16.5842 19.1146 15.1299 19.1146C14.1039 19.1146 13.1775 18.7261 12.4803 18.0886C12.1814 17.8296 11.9225 17.5208 11.7232 17.1821C11.3547 16.5845 11.1455 15.8772 11.1455 15.1302C11.1455 14.0544 11.5738 13.0683 12.2711 12.3511C12.9983 11.604 14.0143 11.1458 15.1299 11.1458C16.3053 11.1458 17.3711 11.6538 18.0883 12.4706C18.7258 13.1778 19.1143 14.1142 19.1143 15.1302Z" stroke="#9EA3A9" stroke-width="1.5" stroke-miterlimit="10" stroke-linecap="round" stroke-linejoin="round"/>
<path d="M16.458 15.1033H13.8018" stroke="#9EA3A9" stroke-miterlimit="10" stroke-linecap="round" stroke-linejoin="round"/>
<path d="M15.1299 13.8021V16.4672" stroke="#9EA3A9" stroke-miterlimit="10" stroke-linecap="round" stroke-linejoin="round"/>
</svg>
