<svg width="20" height="20" viewBox="0 0 20 20" fill="none" xmlns="http://www.w3.org/2000/svg">
<path d="M9.54992 11.4419C10.8432 11.4419 11.8916 10.3935 11.8916 9.10024C11.8916 7.80697 10.8432 6.75858 9.54992 6.75858C8.25665 6.75858 7.20825 7.80697 7.20825 9.10024C7.20825 10.3935 8.25665 11.4419 9.54992 11.4419Z" stroke="#B5B5B5" stroke-width="1.5" stroke-linecap="round" stroke-linejoin="round"/>
<path d="M13.8751 16.8336C13.8751 14.8919 11.9418 13.3086 9.5501 13.3086C7.15843 13.3086 5.2251 14.8836 5.2251 16.8336" stroke="#B5B5B5" stroke-width="1.5" stroke-linecap="round" stroke-linejoin="round"/>
<path d="M17.4998 10.4169C17.4998 14.7919 13.9582 18.3336 9.58317 18.3336C5.20817 18.3336 1.6665 14.7919 1.6665 10.4169C1.6665 6.04191 5.20817 2.50024 9.58317 2.50024C10.6748 2.50024 11.7165 2.7169 12.6665 3.1169C12.5582 3.45024 12.4998 3.80024 12.4998 4.16691C12.4998 4.79191 12.6748 5.38358 12.9832 5.88358C13.1498 6.16691 13.3665 6.42522 13.6165 6.64189C14.1998 7.17522 14.9748 7.50025 15.8332 7.50025C16.1998 7.50025 16.5498 7.44189 16.8748 7.32523C17.2748 8.27523 17.4998 9.32525 17.4998 10.4169Z" stroke="#B5B5B5" stroke-width="1.5" stroke-linecap="round" stroke-linejoin="round"/>
<path d="M19.9999 4.09115C19.9999 4.41843 19.959 4.73546 19.8772 5.04228C19.7852 5.45137 19.6215 5.85024 19.4067 6.19797C18.9158 7.02638 18.1283 7.67068 17.1874 7.96727C16.7886 8.11045 16.359 8.18206 15.909 8.18206C14.8556 8.18206 13.9045 7.78317 13.1886 7.12862C12.8818 6.86271 12.6158 6.5457 12.4113 6.19797C12.0329 5.58433 11.8181 4.8582 11.8181 4.09115C11.8181 3.64115 11.8897 3.2116 12.0227 2.80251C12.217 2.20933 12.5443 1.67754 12.9738 1.23777C13.7204 0.470721 14.7636 0.000244141 15.909 0.000244141C17.1158 0.000244141 18.2102 0.521853 18.9465 1.36049C19.6011 2.08663 19.9999 3.04797 19.9999 4.09115Z" fill="#E9EBEC"/>
<path d="M17.8781 4.13129H13.7883" stroke="#B5B5B5" stroke-miterlimit="10" stroke-linecap="round" stroke-linejoin="round"/>
<path d="M15.8323 2.12766V6.23118" stroke="#B5B5B5" stroke-miterlimit="10" stroke-linecap="round" stroke-linejoin="round"/>
</svg>
