<svg width="24" height="24" viewBox="0 0 24 24" fill="none" xmlns="http://www.w3.org/2000/svg">
<path fill-rule="evenodd" clip-rule="evenodd" d="M16.1681 2.92391L4.51008 13.0609C4.47152 13.0943 4.44409 13.1387 4.43148 13.1881C4.41887 13.2375 4.42168 13.2896 4.43953 13.3374C4.45738 13.3852 4.48941 13.4264 4.53134 13.4554C4.57326 13.4845 4.62307 13.5 4.67408 13.4999H10.1241C10.2478 13.4998 10.3697 13.5303 10.4788 13.5887C10.5879 13.6471 10.6809 13.7316 10.7494 13.8347C10.8179 13.9378 10.8599 14.0562 10.8715 14.1794C10.8831 14.3027 10.8641 14.4268 10.8161 14.5409L8.25708 20.6069L19.4721 10.9389C19.5106 10.9055 19.5381 10.8611 19.5507 10.8117C19.5633 10.7623 19.5605 10.7102 19.5426 10.6624C19.5248 10.6146 19.4927 10.5735 19.4508 10.5444C19.4089 10.5154 19.3591 10.4998 19.3081 10.4999H14.0001C13.8756 10.4998 13.7531 10.4688 13.6436 10.4095C13.5341 10.3503 13.441 10.2647 13.3729 10.1605C13.3047 10.0564 13.2635 9.93685 13.2531 9.81279C13.2427 9.68872 13.2633 9.56402 13.3131 9.44991L16.1681 2.92391ZM15.7161 1.32891C15.9458 1.12864 16.237 1.01261 16.5415 0.999939C16.846 0.987271 17.1458 1.07872 17.3914 1.25922C17.637 1.43972 17.8138 1.6985 17.8926 1.99292C17.9714 2.28734 17.9476 2.59983 17.8251 2.87891L15.1471 8.99991H19.3081C20.9311 8.99991 21.6801 11.0159 20.4511 12.0749L8.10208 22.7209C7.90585 22.8908 7.65788 22.9892 7.39856 23.0002C7.13924 23.0112 6.88385 22.934 6.67397 22.7813C6.4641 22.6286 6.31211 22.4093 6.24277 22.1592C6.17342 21.9091 6.1908 21.6429 6.29208 21.4039L8.99608 14.9999H4.67408C3.05508 14.9999 2.30408 12.9919 3.52608 11.9299L15.7161 1.32991V1.32891Z" fill="#16161D"/>
</svg>
